<svg xmlns="http://www.w3.org/2000/svg" xmlns:xlink="http://www.w3.org/1999/xlink" viewBox="0 0 274.39 272.41"><defs><style>.cls-1{fill:url(#radial-gradient);}.cls-2{fill:#fff;}</style><radialGradient id="radial-gradient" cx="88.09" cy="273.13" r="314.23" gradientUnits="userSpaceOnUse"><stop offset="0.1" stop-color="#ffd879"/><stop offset="0.15" stop-color="#fccb76"/><stop offset="0.26" stop-color="#f5aa6c"/><stop offset="0.4" stop-color="#e9755e"/><stop offset="0.45" stop-color="#e45f58"/><stop offset="0.68" stop-color="#d22a9c"/><stop offset="1" stop-color="#6968df"/></radialGradient></defs><g id="Insagram"><circle class="cls-1" cx="137.2" cy="136.2" r="118.57"/><path class="cls-2" d="M137.2,18.14A118.07,118.07,0,1,1,19.13,136.2,118.06,118.06,0,0,1,137.2,18.14m0-1A119.06,119.06,0,0,0,53,220.39,119.07,119.07,0,0,0,221.39,52,118.28,118.28,0,0,0,137.2,17.14Z"/><path class="cls-2" d="M164.87,64.09H109.52a44.43,44.43,0,0,0-44.44,44.44v55.35a44.44,44.44,0,0,0,44.44,44.44h55.35a44.44,44.44,0,0,0,44.44-44.44V108.53A44.43,44.43,0,0,0,164.87,64.09Zm30.6,94.48a35.91,35.91,0,0,1-35.91,35.91H114.83a35.9,35.9,0,0,1-35.91-35.91V113.84a35.91,35.91,0,0,1,35.91-35.91h44.73a35.91,35.91,0,0,1,35.91,35.91Z"/><path class="cls-2" d="M139.13,98.46a38,38,0,1,0,38,38A38,38,0,0,0,139.13,98.46Zm0,60.85A22.86,22.86,0,1,1,162,136.45,22.86,22.86,0,0,1,139.13,159.31Z"/><path class="cls-2" d="M184.15,97.87a9.66,9.66,0,1,1-9.66-9.67A9.66,9.66,0,0,1,184.15,97.87Z"/></g></svg>