<svg xmlns="http://www.w3.org/2000/svg" viewBox="0 0 274.39 272.41"><defs><style>.cls-1{fill:#007ab9;}.cls-2{fill:#fff;}.cls-3{fill:#f1f2f2;}</style></defs><g id="LinkedIn"><path class="cls-1" d="M137.19,254.55A118.35,118.35,0,1,1,255.54,136.2,118.48,118.48,0,0,1,137.19,254.55Z"/><path class="cls-2" d="M137.2,18.36A117.84,117.84,0,0,1,255,136.2h0A117.84,117.84,0,0,1,137.2,254.05h0A117.85,117.85,0,0,1,19.35,136.2h0A117.84,117.84,0,0,1,137.19,18.36h0m0-1h0a118.84,118.84,0,0,0-84,202.88A118.85,118.85,0,0,0,221.24,52.17a118.06,118.06,0,0,0-84-34.81Z"/><path class="cls-3" d="M198.18,142.3v45.1H172V145.32c0-10.57-3.77-17.78-13.24-17.78-7.23,0-11.52,4.86-13.41,9.56a17.83,17.83,0,0,0-.87,6.37v43.92H118.36s.35-71.26,0-78.64h26.15V119.9l-.17.25h.17v-.25c3.48-5.35,9.68-13,23.57-13,17.2,0,30.1,11.24,30.1,35.39ZM91,70.84c-9,0-14.8,5.88-14.8,13.59C76.21,92,81.89,98,90.66,98h.17c9.12,0,14.79-6,14.79-13.59C105.45,76.72,100,70.84,91,70.84ZM77.76,187.4H103.9V108.75H77.76Z"/></g></svg>