<svg xmlns="http://www.w3.org/2000/svg" viewBox="0 0 274.39 272.41"><defs><style>.cls-1{fill:#fff;}.cls-2{fill:#ff0b53;}.cls-3{fill:#00f0e9;}</style></defs><g id="Tik_Tok" data-name="Tik Tok"><path d="M137.19,254.56A118.36,118.36,0,1,1,255.55,136.19,118.49,118.49,0,0,1,137.19,254.56Z"/><path class="cls-1" d="M137.2,18.35A117.85,117.85,0,0,1,255.05,136.2h0A117.86,117.86,0,0,1,137.19,254.06h0A117.86,117.86,0,0,1,19.34,136.21v0A117.84,117.84,0,0,1,137.19,18.35h0m0-1h0a118.86,118.86,0,0,0-84,202.9A118.86,118.86,0,0,0,221.24,52.16a118.08,118.08,0,0,0-84-34.81Z"/><path class="cls-2" d="M137.2,23.21a113,113,0,0,1,113,113h0a113,113,0,0,1-113,113h0a113,113,0,0,1-113-113v0a113,113,0,0,1,113-113h0m0-1h0a114,114,0,0,0-80.6,194.6A114,114,0,1,0,217.8,55.6a113.24,113.24,0,0,0-80.6-33.39Z"/><path class="cls-3" d="M137.2,27.87A108.33,108.33,0,0,1,245.53,136.2h0A108.35,108.35,0,0,1,137.19,244.54h0A108.34,108.34,0,0,1,28.86,136.21v0A108.33,108.33,0,0,1,137.19,27.87h0m0-1h0a109.33,109.33,0,0,0-77.3,186.64A109.33,109.33,0,1,0,214.5,58.89a108.58,108.58,0,0,0-77.3-32Z"/><path class="cls-2" d="M192.38,107.43a28.05,28.05,0,0,1-28-28.05h-21v81a17.4,17.4,0,0,1-15.58,17.46,17.15,17.15,0,1,1-1.56-34.22,19.26,19.26,0,0,1,5.4.77V123a39,39,0,0,0-6.69-.35A38.18,38.18,0,0,0,127.28,199c20.74-.6,37.05-18,37.05-38.77V117.71a44.21,44.21,0,0,0,28,10Z"/><path class="cls-3" d="M186.42,101.47a28.05,28.05,0,0,1-28-28h-21v81a17.4,17.4,0,0,1-15.58,17.46,17.15,17.15,0,1,1-1.56-34.22,19.2,19.2,0,0,1,5.4.77V117a39.21,39.21,0,0,0-6.62-.36A38.18,38.18,0,0,0,121.24,193c20.77-.56,37.13-18,37.13-38.77V111.75a44.21,44.21,0,0,0,28,10Z"/><path class="cls-1" d="M186.42,106.79A28.06,28.06,0,0,1,169.79,96,28.06,28.06,0,0,1,159,79.38H143.29v81.05c0,8.65-7,16.71-15.63,17.45a17.14,17.14,0,0,1-16.24-8.31,17.14,17.14,0,0,1,8.77-31.87,19.2,19.2,0,0,1,5.4.77V122.63a38.18,38.18,0,0,0-29.25,62A39.89,39.89,0,0,0,120.19,193c25.41.86,38.29-14.69,38.18-38.18V111.75a44.21,44.21,0,0,0,28,10Z"/></g></svg>