<svg xmlns="http://www.w3.org/2000/svg" viewBox="0 0 274.39 272.41"><defs><style>.cls-1{fill:#1da1f2;}.cls-2{fill:#fff;}</style></defs><g id="Twitter"><circle class="cls-1" cx="137.2" cy="136.2" r="117.72"/><path class="cls-2" d="M137.2,19A117.22,117.22,0,1,1,20,136.2,117.22,117.22,0,0,1,137.2,19m0-1A118.23,118.23,0,0,0,53.6,219.8,118.22,118.22,0,0,0,220.79,52.61,117.45,117.45,0,0,0,137.2,18Z"/><path class="cls-2" d="M112,191.49c51.35,0,79.42-42.54,79.42-79.43,0-1.21,0-2.41-.08-3.61A56.42,56.42,0,0,0,205.22,94a55.49,55.49,0,0,1-16,4.39A28.1,28.1,0,0,0,201.48,83a56.14,56.14,0,0,1-17.73,6.78,27.92,27.92,0,0,0-48.29,19.09,28.53,28.53,0,0,0,.72,6.37A79.28,79.28,0,0,1,78.64,86a27.94,27.94,0,0,0,8.64,37.27,27.72,27.72,0,0,1-12.64-3.5c0,.13,0,.24,0,.36A27.92,27.92,0,0,0,97,147.51a27.8,27.8,0,0,1-7.35,1,27.49,27.49,0,0,1-5.25-.52,27.94,27.94,0,0,0,26.07,19.4,56.36,56.36,0,0,1-41.32,11.56A78.91,78.91,0,0,0,112,191.49"/></g></svg>