<svg xmlns="http://www.w3.org/2000/svg" xmlns:xlink="http://www.w3.org/1999/xlink" viewBox="0 0 274.39 272.41"><defs><style>.cls-1{fill:url(#radial-gradient);}.cls-2{fill:#fff;}.cls-3{fill:#020202;}</style><radialGradient id="radial-gradient" cx="129.58" cy="271.25" r="302.02" gradientUnits="userSpaceOnUse"><stop offset="0.09" stop-color="#faf707"/><stop offset="0.73" stop-color="#fffc00"/></radialGradient></defs><g id="Snapchat"><path class="cls-1" d="M137.19,253.92A117.72,117.72,0,1,1,254.91,136.19,117.84,117.84,0,0,1,137.19,253.92Z"/><path class="cls-2" d="M137.2,19A117.21,117.21,0,0,1,254.41,136.19v0A117.2,117.2,0,0,1,137.2,253.42h0A117.2,117.2,0,0,1,20,136.21h0A117.22,117.22,0,0,1,137.2,19h0m0-1A118.23,118.23,0,0,0,53.6,219.8,118.22,118.22,0,0,0,220.79,52.6,117.47,117.47,0,0,0,137.2,18Z"/><path class="cls-3" d="M106.67,97.57c.21-.5.46-1,.69-1.45a32.24,32.24,0,0,1,5.59-8A29.46,29.46,0,0,1,119.51,83a31.35,31.35,0,0,1,6.6-2.83A35.23,35.23,0,0,1,131.88,79a44.84,44.84,0,0,1,5.68-.29,44.07,44.07,0,0,1,5.62.36,34.56,34.56,0,0,1,5.95,1.41,31.14,31.14,0,0,1,6.67,3.11A29.65,29.65,0,0,1,162.3,89a33.71,33.71,0,0,1,5.42,8.51c2.58,5.78,1.91,16.26,1.38,24.67-.09,1.34-.17,2.63-.23,3.87l0,.52.34.41a6.41,6.41,0,0,0,4.47,1.67h.1a12.61,12.61,0,0,0,3.83-.73,35.08,35.08,0,0,1,3.38-1.23,5.38,5.38,0,0,1,4.3,1.29c.82.94-.08,2.18-.84,2.78a13.67,13.67,0,0,1-3.61,1.94c-.44.18-1,.36-1.68.58-2.92.92-7.33,2.32-8.81,5.81-.83,2-.61,4.29.68,6.91.52,1.23,8.86,20,27.59,23.08a.71.71,0,0,1-.08.29c-.32.75-2.34,3.33-14.89,5.27-2,.31-2.45,2.51-3,5.07-.2.92-.41,1.84-.69,2.8-.09.29-.1.31-.41.31h-.15a14.07,14.07,0,0,1-2.38-.31,36.69,36.69,0,0,0-7.35-.77,32.56,32.56,0,0,0-5.33.44c-3.83.65-7,2.86-10.27,5.2a53,53,0,0,1-6.29,4,21.57,21.57,0,0,1-7.76,2.31c-.61.05-1.22.06-1.82.09a23.48,23.48,0,0,1-8.49-1.1,29.83,29.83,0,0,1-6.75-3.5c-.87-.58-1.73-1.19-2.58-1.79-3.31-2.34-6.44-4.55-10.28-5.2a32.47,32.47,0,0,0-5.33-.44,37,37,0,0,0-7.34.81A15.42,15.42,0,0,1,95,183c-.46,0-.46,0-.56-.37-.29-1-.49-1.89-.69-2.81-.56-2.57-1-4.78-3-5.08-12.56-1.94-14.58-4.53-14.9-5.27a2.86,2.86,0,0,1-.08-.31c18.75-3.09,27.07-21.84,27.6-23.08,1.29-2.61,1.52-4.94.68-6.91-1.48-3.49-5.88-4.89-8.81-5.81-.67-.22-1.24-.4-1.68-.58-1.72-.68-7-3.16-3.58-5.28a4.15,4.15,0,0,1,2.44-.69,9.23,9.23,0,0,1,2.61.83,15.09,15.09,0,0,0,5.3,1.11A6.51,6.51,0,0,0,105.2,127l.34-.41,0-.52c-.07-1.23-.14-2.53-.23-3.86C104.76,113.81,104.1,103.35,106.67,97.57Zm14.49-18.75a32.86,32.86,0,0,0-9.39,6.23,35,35,0,0,0-7.85,11.28c-2.88,6.46-2.2,17.33-1.66,26.07l0,0c0,.93.11,1.91.17,2.87a5.13,5.13,0,0,1-2.11.39,12.27,12.27,0,0,1-4.39-1,11.18,11.18,0,0,0-3.74-1,7.18,7.18,0,0,0-3.66,1.06,5.43,5.43,0,0,0-2.73,3.5,4.85,4.85,0,0,0,1.84,4.53,15.89,15.89,0,0,0,4.8,2.76c.55.21,1.2.41,1.88.63,2.39.77,6,1.91,7,4.12.47,1.13.27,2.6-.62,4.4a1,1,0,0,0-.06.14A37.46,37.46,0,0,1,96.39,152a38.06,38.06,0,0,1-9.09,9.17,30.1,30.1,0,0,1-6,3.24,58,58,0,0,1-5.81,1.6c-1.57.44-2.87,1.46-2.76,3.25a4,4,0,0,0,.31,1.32c.62,1.44,2,2.67,4.36,3.74,2.83,1.32,7.08,2.42,12.6,3.29a15.45,15.45,0,0,1,.77,2.78c.2,1,.42,2,.74,3A3.31,3.31,0,0,0,95,186a16.65,16.65,0,0,0,3-.42,33.94,33.94,0,0,1,6.77-.77,29,29,0,0,1,4.84.42c3.15.52,5.87,2.44,9,4.67l.8.56a49.73,49.73,0,0,0,6.06,3.76,24.82,24.82,0,0,0,7.55,2.39,30.36,30.36,0,0,0,4.56.23,28.8,28.8,0,0,0,5-.43,25.54,25.54,0,0,0,7.31-2.7c1.06-.57,2.08-1.2,3.08-1.87a30.45,30.45,0,0,0,2.81-1.94h0c3.16-2.22,5.88-4.14,9-4.66a28.85,28.85,0,0,1,4.83-.42,33.2,33.2,0,0,1,6.77.73,16.61,16.61,0,0,0,3,.36h.15a3.27,3.27,0,0,0,3.31-2.48c.31-1,.53-2,.74-3a15,15,0,0,1,.77-2.76,49.84,49.84,0,0,0,12.59-3.28c2.32-1.09,3.75-2.3,4.36-3.73a4,4,0,0,0,.32-1.33,3,3,0,0,0-2.52-3.15c-17.22-2.84-25-20.53-25.31-21.29,0-.06-.05-.1-.06-.14q-1.33-2.7-.61-4.4c.94-2.21,4.54-3.35,6.94-4.12.69-.22,1.34-.42,1.87-.63a14.41,14.41,0,0,0,5.15-3.09,4.81,4.81,0,0,0,1.56-3.52c-.06-3.34-3.36-5.17-6.3-5.26a12.52,12.52,0,0,0-4.48,1,12.8,12.8,0,0,1-4.13,1,4.81,4.81,0,0,1-1.78-.39c.05-.8.09-1.63.15-2.49l0-.38c.54-8.75,1.23-19.62-1.65-26.09A35.22,35.22,0,0,0,162.58,85a32.56,32.56,0,0,0-9.42-6.22,37.14,37.14,0,0,0-11.33-2.93c-1.49-.15-3-.27-4.53-.27a42.8,42.8,0,0,0-9.88,1.14A36.84,36.84,0,0,0,121.16,78.82Z"/><path class="cls-2" d="M183.63,174.68c12.55-1.94,14.57-4.52,14.89-5.27a.71.71,0,0,0,.08-.29C179.87,166,171.53,147.27,171,146c-1.29-2.62-1.51-4.94-.68-6.91,1.48-3.49,5.89-4.89,8.81-5.81.66-.22,1.24-.4,1.68-.58a13.67,13.67,0,0,0,3.61-1.94c.76-.6,1.66-1.84.84-2.78a5.38,5.38,0,0,0-4.3-1.29,35.08,35.08,0,0,0-3.38,1.23,12.61,12.61,0,0,1-3.83.73h-.1a6.41,6.41,0,0,1-4.47-1.67l-.34-.41,0-.52c.06-1.24.14-2.53.23-3.87.53-8.41,1.2-18.89-1.38-24.67A33.71,33.71,0,0,0,162.3,89a29.65,29.65,0,0,0-6.5-5.47,31.14,31.14,0,0,0-6.67-3.11,34.56,34.56,0,0,0-5.95-1.41,44.07,44.07,0,0,0-5.62-.36,44.84,44.84,0,0,0-5.68.29,35.23,35.23,0,0,0-5.77,1.22,31.35,31.35,0,0,0-6.6,2.83A29.46,29.46,0,0,0,113,88.12a32.24,32.24,0,0,0-5.59,8c-.23.48-.48.95-.69,1.45-2.57,5.78-1.91,16.24-1.38,24.66.09,1.33.16,2.63.23,3.86l0,.52-.34.41a6.51,6.51,0,0,1-4.86,1.69A15.09,15.09,0,0,1,95,127.6a9.23,9.23,0,0,0-2.61-.83,4.15,4.15,0,0,0-2.44.69c-3.44,2.12,1.86,4.6,3.58,5.28.44.18,1,.36,1.68.58,2.93.92,7.33,2.32,8.81,5.81.84,2,.61,4.3-.68,6.91-.53,1.24-8.85,20-27.6,23.08a2.86,2.86,0,0,0,.08.31c.32.74,2.34,3.33,14.9,5.27,2,.3,2.45,2.51,3,5.08.2.92.4,1.86.69,2.81.1.34.1.37.56.37a15.42,15.42,0,0,0,2.38-.37,37,37,0,0,1,7.34-.81,32.47,32.47,0,0,1,5.33.44c3.84.65,7,2.86,10.28,5.2.85.6,1.71,1.21,2.58,1.79a29.83,29.83,0,0,0,6.75,3.5,23.48,23.48,0,0,0,8.49,1.1c.6,0,1.21,0,1.82-.09a21.57,21.57,0,0,0,7.76-2.31,53,53,0,0,0,6.29-4c3.31-2.34,6.44-4.55,10.27-5.2a32.56,32.56,0,0,1,5.33-.44,36.69,36.69,0,0,1,7.35.77,14.07,14.07,0,0,0,2.38.31h.15c.31,0,.32,0,.41-.31.28-1,.49-1.88.69-2.8C181.18,177.19,181.65,175,183.63,174.68Z"/></g></svg>