<svg xmlns="http://www.w3.org/2000/svg" xmlns:xlink="http://www.w3.org/1999/xlink" viewBox="0 0 274.39 272.41"><defs><style>.cls-1{fill:url(#radial-gradient);}.cls-2{fill:#fff;}.cls-3{fill:url(#radial-gradient-2);}.cls-4{fill:url(#radial-gradient-3);}.cls-5{opacity:0.2;}</style><radialGradient id="radial-gradient" cx="133.36" cy="297.77" r="233.5" gradientUnits="userSpaceOnUse"><stop offset="0.17" stop-color="#c2181e"/><stop offset="0.77" stop-color="#de2925"/></radialGradient><radialGradient id="radial-gradient-2" cx="135.1" cy="198.59" r="125.19" gradientUnits="userSpaceOnUse"><stop offset="0.17" stop-color="#ebebeb"/><stop offset="0.77" stop-color="#fefefe"/></radialGradient><radialGradient id="radial-gradient-3" cx="142.65" cy="125.58" r="26.44" gradientTransform="translate(41.36 2.8) rotate(24.15) scale(1 0.56)" xlink:href="#radial-gradient"/></defs><g id="YouTube"><circle class="cls-1" cx="137.19" cy="136.2" r="117.72"/><path class="cls-2" d="M137.2,19A117.22,117.22,0,1,1,20,136.2,117.22,117.22,0,0,1,137.2,19m0-1A118.22,118.22,0,0,0,53.6,219.79,118.22,118.22,0,0,0,220.79,52.61,117.45,117.45,0,0,0,137.2,18Z"/><path class="cls-3" d="M202.28,152c0,16.4-5.61,29.7-22,29.7H95.91c-16.41,0-23.76-13.3-23.76-29.7v-31.4c0-16.41,6.66-29.7,23-29.7H181c16.4,0,21.31,13.29,21.31,29.7Z"/><polygon class="cls-4" points="124.17 118.55 159.62 137.05 124.17 155.54 124.17 118.55"/><polygon class="cls-5" points="124.17 118.83 155 139.45 159.62 137.05 126.91 119.98 124.17 118.79 124.17 118.83"/></g></svg>