<?xml version="1.0" encoding="utf-8"?>
<!-- Generator: Adobe Illustrator 25.2.1, SVG Export Plug-In . SVG Version: 6.00 Build 0)  -->
<svg version="1.1" id="Facebook" xmlns="http://www.w3.org/2000/svg" xmlns:xlink="http://www.w3.org/1999/xlink" x="0px" y="0px"
	 viewBox="0 0 274.39 272.41" style="enable-background:new 0 0 274.39 272.41;" xml:space="preserve">
<style type="text/css">
	.st0{fill:url(#SVGID_1_);}
	.st1{fill:#FFFFFF;}
	.st2{clip-path:url(#SVGID_3_);}
</style>
<radialGradient id="SVGID_1_" cx="138.99" cy="-35.46" r="318.2" gradientTransform="matrix(1 0 0 -1 0 272)" gradientUnits="userSpaceOnUse">
	<stop  offset="0" style="stop-color:#3B5998"/>
	<stop  offset="0.3" style="stop-color:#3B5998"/>
	<stop  offset="1" style="stop-color:#5F83CF"/>
</radialGradient>
<path class="st0" d="M137.19,254.33c-65.24-0.01-118.13-52.9-118.12-118.14S71.97,18.06,137.21,18.07
	c65.24,0.01,118.12,52.89,118.12,118.13C255.25,201.41,202.4,254.26,137.19,254.33z"/>
<path class="st1" d="M137.2,18.58c64.96,0,117.62,52.66,117.63,117.62l0,0c0,64.97-52.66,117.63-117.63,117.63h0l0,0
	c-64.97,0-117.63-52.66-117.64-117.63l0,0C19.57,71.24,72.23,18.58,137.2,18.58L137.2,18.58 M137.19,17.58L137.19,17.58
	c-65.51,0-118.62,53.1-118.63,118.61c0,31.46,12.5,61.64,34.75,83.89c46.04,46.61,121.15,47.07,167.76,1.03
	s47.07-121.15,1.03-167.76c-0.34-0.34-0.68-0.69-1.03-1.03C198.88,30,168.68,17.49,137.19,17.58L137.19,17.58z"/>
<g>
	<defs>
		<path id="SVGID_2_" d="M254.83,136.2c0,64.97-52.66,117.63-117.63,117.63h0l0,0c-64.97,0-117.63-52.66-117.64-117.63l0,0
			C19.57,71.24,72.23,18.58,137.19,18.58l0,0C202.16,18.57,254.82,71.23,254.83,136.2L254.83,136.2z"/>
	</defs>
	<clipPath id="SVGID_3_">
		<use xlink:href="#SVGID_2_"  style="overflow:visible;"/>
	</clipPath>
	<g class="st2">
		<path class="st1" d="M163,115.72h17.57V88.1h-26.32c0,0-16.56-0.41-27.11,13.31c0,0-7.19,6.78-7.3,26.62l0,0v20.71h-26v29.33h26
			v75.76h30v-75.76h25.83l3.6-29.33h-29.42V128l0,0C149.92,125.72,151,115.51,163,115.72z"/>
	</g>
</g>
</svg>
