<svg xmlns="http://www.w3.org/2000/svg" xmlns:xlink="http://www.w3.org/1999/xlink" viewBox="0 0 274.39 272.41"><defs><style>.cls-1{fill:url(#Безымянный_градиент_10);}.cls-2{fill:#3c8bd9;}.cls-3{fill:#34a852;}.cls-4{fill:#fabc04;}.cls-5{fill:#e1c025;}</style><linearGradient id="Безымянный_градиент_10" x1="-18.18" y1="-63.01" x2="144.66" y2="145.77" gradientTransform="translate(227.8 -34.58) rotate(73.15)" gradientUnits="userSpaceOnUse"><stop offset="0.22" stop-color="#f2f2f2"/><stop offset="0.88" stop-color="#fcfcfc"/></linearGradient></defs><g id="Gooogle_Ads" data-name="Gooogle Ads"><circle class="cls-1" cx="137.19" cy="136.2" r="118.53" transform="translate(-32.92 228.04) rotate(-73.15)"/><path class="cls-2" d="M137.2,18.17a118,118,0,1,1-118,118,118,118,0,0,1,118-118m0-1A119,119,0,0,0,53,220.37,119,119,0,1,0,221.36,52,118.24,118.24,0,0,0,137.2,17.17Z"/><path class="cls-3" d="M137.2,23A113.17,113.17,0,1,1,24,136.2,113.16,113.16,0,0,1,137.2,23m0-1A114.16,114.16,0,0,0,56.47,216.93,114.16,114.16,0,1,0,217.92,55.48,113.38,113.38,0,0,0,137.2,22Z"/><path class="cls-2" d="M112.18,83a28.29,28.29,0,0,1,6.65-10.54,26.07,26.07,0,0,1,41,6.09c6.28,11.42,12.93,22.6,19.4,33.9C190,131.2,201,150,211.62,168.81A25.9,25.9,0,0,1,193,207.17c-10.92,1.63-21.16-3.39-26.81-13.19q-14.22-24.76-28.5-49.47a5.54,5.54,0,0,0-.69-1,10.36,10.36,0,0,1-2.07-3.08c-4.21-7.41-8.54-14.75-12.75-22.1-2.7-4.77-5.52-9.48-8.22-14.25a26,26,0,0,1-3.45-13.81A19.32,19.32,0,0,1,112.18,83"/><path class="cls-4" d="M112.18,83A35.29,35.29,0,0,0,111,89.89a27.15,27.15,0,0,0,3.76,14.75q10.36,17.81,20.66,35.73c.63,1.06,1.13,2.13,1.76,3.14-3.77,6.52-7.54,13-11.37,19.52-5.27,9.1-10.54,18.27-15.88,27.37-.25,0-.31-.12-.38-.31a4,4,0,0,1,.25-1.44c2.58-9.42.44-17.77-6-24.93A24,24,0,0,0,89,156.12a25.5,25.5,0,0,0-20.15,5.59c-1.07.82-1.76,2-3,2.64a.42.42,0,0,1-.44-.31c3-5.22,6-10.43,9-15.64Q93,116,111.74,83.68c.13-.26.31-.44.44-.7"/><path class="cls-3" d="M65.66,164.22c1.19-1.06,2.32-2.19,3.58-3.2,15.25-12.05,38.17-3.33,41.5,15.76a27.67,27.67,0,0,1-1,13.37,5.92,5.92,0,0,1-.25,1.07c-.57,1-1.07,2.07-1.7,3.08-5.58,9.22-13.81,13.81-24.61,13.12a25.78,25.78,0,0,1-23.79-22.48,25.14,25.14,0,0,1,3.45-16.7c.63-1.13,1.38-2.13,2.08-3.26.31-.25.18-.76.75-.76"/><path class="cls-4" d="M65.66,164.22c-.25.25-.25.69-.69.76-.06-.44.19-.69.44-1l.25.25"/><path class="cls-5" d="M109.48,191.22c-.25-.44,0-.75.25-1.07l.25.25-.5.82"/></g></svg>